<svg width="24" height="24" viewBox="0 0 24 24" fill="none" xmlns="http://www.w3.org/2000/svg">
<path fill-rule="evenodd" clip-rule="evenodd" d="M10.5 11.011C9.847 11.011 9.5 10.626 9.5 9.891V8H10.5C10.7652 8 11.0196 7.89464 11.2071 7.70711C11.3946 7.51957 11.5 7.26522 11.5 7V3C11.5 2.73478 11.3946 2.48043 11.2071 2.29289C11.0196 2.10536 10.7652 2 10.5 2H6.5C6.23478 2 5.98043 2.10536 5.79289 2.29289C5.60536 2.48043 5.5 2.73478 5.5 3V7C5.5 7.26522 5.60536 7.51957 5.79289 7.70711C5.98043 7.89464 6.23478 8 6.5 8H7.5V9.891V16.891C7.5 18.736 8.566 20.005 10.5 20.005H13.5V21C13.5 21.2652 13.6054 21.5196 13.7929 21.7071C13.9804 21.8946 14.2348 22 14.5 22H18.5C18.7652 22 19.0196 21.8946 19.2071 21.7071C19.3946 21.5196 19.5 21.2652 19.5 21V17C19.5 16.7348 19.3946 16.4804 19.2071 16.2929C19.0196 16.1054 18.7652 16 18.5 16H14.5C14.2348 16 13.9804 16.1054 13.7929 16.2929C13.6054 16.4804 13.5 16.7348 13.5 17V18.012H10.5C9.847 18.012 9.5 17.626 9.5 16.891V12.8743C9.80159 12.9599 10.1354 13.005 10.5 13.005H13.5V14C13.5 14.2652 13.6054 14.5196 13.7929 14.7071C13.9804 14.8946 14.2348 15 14.5 15H18.5C18.7652 15 19.0196 14.8946 19.2071 14.7071C19.3946 14.5196 19.5 14.2652 19.5 14V10C19.5 9.73478 19.3946 9.48043 19.2071 9.29289C19.0196 9.10536 18.7652 9 18.5 9H14.5C14.2348 9 13.9804 9.10536 13.7929 9.29289C13.6054 9.48043 13.5 9.73478 13.5 10V11.011H10.5ZM15.5 18V20H17.5V18H15.5ZM15.5 11V13H17.5V11H15.5Z" fill="#42526E"/>
</svg>
